{
    "asset" : {
        "generator" : "Khronos glTF Blender I/O v1.0.5",
        "version" : "2.0"
    },
    "scene" : 0,
    "scenes" : [
        {
            "name" : "Scene",
            "nodes" : [
                0
            ]
        }
    ],
    "nodes" : [
        {
            "mesh" : 0,
            "name" : "Plane.001",
            "scale" : [
                34.309818267822266,
                638.2720947265625,
                35.9909553527832
            ],
            "translation" : [
                -0.1126394271850586,
                -0.20216917991638184,
                0
            ]
        }
    ],
    "materials" : [
        {
            "doubleSided" : true,
            "name" : "BG.001",
            "pbrMetallicRoughness" : {
                "baseColorFactor" : [
                    0.3355470299720764,
                    0.5036773681640625,
                    0.04361487552523613,
                    1
                ],
                "metallicFactor" : 0,
                "roughnessFactor" : 0.5
            }
        },
        {
            "doubleSided" : true,
            "name" : "Stump1_2.001",
            "pbrMetallicRoughness" : {
                "baseColorFactor" : [
                    0.4704551696777344,
                    0.20507709681987762,
                    0.06571134179830551,
                    1
                ],
                "metallicFactor" : 0,
                "roughnessFactor" : 0.5
            }
        }
    ],
    "meshes" : [
        {
            "name" : "Plane.001",
            "primitives" : [
                {
                    "attributes" : {
                        "POSITION" : 0,
                        "NORMAL" : 1,
                        "TEXCOORD_0" : 2
                    },
                    "indices" : 3,
                    "material" : 0
                },
                {
                    "attributes" : {
                        "POSITION" : 4,
                        "NORMAL" : 5,
                        "TEXCOORD_0" : 6
                    },
                    "indices" : 7,
                    "material" : 1
                }
            ]
        }
    ],
    "accessors" : [
        {
            "bufferView" : 0,
            "componentType" : 5126,
            "count" : 411,
            "max" : [
                1.001314401626587,
                0.028633423149585724,
                1
            ],
            "min" : [
                -1.0027230978012085,
                0,
                -1.0039373636245728
            ],
            "type" : "VEC3"
        },
        {
            "bufferView" : 1,
            "componentType" : 5126,
            "count" : 411,
            "type" : "VEC3"
        },
        {
            "bufferView" : 2,
            "componentType" : 5126,
            "count" : 411,
            "type" : "VEC2"
        },
        {
            "bufferView" : 3,
            "componentType" : 5123,
            "count" : 858,
            "type" : "SCALAR"
        },
        {
            "bufferView" : 4,
            "componentType" : 5126,
            "count" : 138,
            "max" : [
                0.5000666975975037,
                0.021163303405046463,
                1.0123122930526733
            ],
            "min" : [
                -1.011277198791504,
                0,
                -0.008100908249616623
            ],
            "type" : "VEC3"
        },
        {
            "bufferView" : 5,
            "componentType" : 5126,
            "count" : 138,
            "type" : "VEC3"
        },
        {
            "bufferView" : 6,
            "componentType" : 5126,
            "count" : 138,
            "type" : "VEC2"
        },
        {
            "bufferView" : 7,
            "componentType" : 5123,
            "count" : 210,
            "type" : "SCALAR"
        }
    ],
    "bufferViews" : [
        {
            "buffer" : 0,
            "byteLength" : 4932,
            "byteOffset" : 0
        },
        {
            "buffer" : 0,
            "byteLength" : 4932,
            "byteOffset" : 4932
        },
        {
            "buffer" : 0,
            "byteLength" : 3288,
            "byteOffset" : 9864
        },
        {
            "buffer" : 0,
            "byteLength" : 1716,
            "byteOffset" : 13152
        },
        {
            "buffer" : 0,
            "byteLength" : 1656,
            "byteOffset" : 14868
        },
        {
            "buffer" : 0,
            "byteLength" : 1656,
            "byteOffset" : 16524
        },
        {
            "buffer" : 0,
            "byteLength" : 1104,
            "byteOffset" : 18180
        },
        {
            "buffer" : 0,
            "byteLength" : 420,
            "byteOffset" : 19284
        }
    ],
    "buffers" : [
        {
            "byteLength" : 19704,
            "uri" : "data:application/octet-stream;base64,"
        }
    ]
}
